<!DOCTYPE svg PUBLIC "-//W3C//DTD SVG 1.1//EN" "http://www.w3.org/Graphics/SVG/1.1/DTD/svg11.dtd">
<!-- Uploaded to: SVG Repo, www.svgrepo.com, Transformed by: SVG Repo Mixer Tools -->
<svg height="800px" width="800px" version="1.1" id="Layer_1" xmlns="http://www.w3.org/2000/svg" xmlns:xlink="http://www.w3.org/1999/xlink" viewBox="-51.2 -51.2 614.40 614.40" xml:space="preserve" fill="#000000">
<g id="SVGRepo_bgCarrier" stroke-width="0">
<path transform="translate(-51.2, -51.2), scale(38.4)" fill="#DAC0A3" d="M9.166.33a2.25 2.25 0 00-2.332 0l-5.25 3.182A2.25 2.25 0 00.5 5.436v5.128a2.25 2.25 0 001.084 1.924l5.25 3.182a2.25 2.25 0 002.332 0l5.25-3.182a2.25 2.25 0 001.084-1.924V5.436a2.25 2.25 0 00-1.084-1.924L9.166.33z" strokewidth="0"/>
</g>
<g id="SVGRepo_tracerCarrier" stroke-linecap="round" stroke-linejoin="round"/>
<g id="SVGRepo_iconCarrier"> <path style="fill:#ECF0F1;" d="M388.929,5.268c-2.98-3.349-7.247-5.266-11.73-5.266L256,0v0.001L134.803,0 c-4.482,0-8.75,1.917-11.729,5.266c-28.953,32.558-44.898,74.509-44.898,118.12c0,0.714,0.018,1.422,0.025,2.133 c1.086,91.795,72.074,167.076,162.105,174.986v180.105h-68.337c-8.668,0-15.695,7.026-15.695,15.695 c0,8.667,7.027,15.695,15.695,15.695H256h84.032c8.669,0,15.695-7.028,15.695-15.695c0-8.669-7.026-15.695-15.695-15.695h-68.337 V300.505c70.898-6.231,129.993-54.235,152.439-119.184c6.279-18.167,9.691-37.661,9.691-57.936 C433.825,79.775,417.881,37.826,388.929,5.268z"/> <path style="fill:#597E52;" d="M424.134,181.321c-109.771,42.584-234.85-113.846-345.933-55.802 c1.086,91.795,72.074,167.076,162.105,174.986v180.105h-68.337c-8.668,0-15.695,7.026-15.695,15.695 c0,8.667,7.027,15.695,15.695,15.695h168.063c8.669,0,15.695-7.028,15.695-15.695c0-8.669-7.026-15.695-15.695-15.695h-68.337 V300.505C342.593,294.274,401.688,246.27,424.134,181.321z"/> <path style="opacity:0.15;enable-background:new ;" d="M388.929,5.268c-2.98-3.349-7.247-5.266-11.73-5.266L256,0v512h84.032 c8.669,0,15.695-7.028,15.695-15.695c0-8.669-7.026-15.695-15.695-15.695h-68.337V300.505 c70.898-6.231,129.993-54.235,152.439-119.184c6.279-18.167,9.691-37.661,9.691-57.936C433.825,79.775,417.881,37.826,388.929,5.268 z"/> </g>
</svg>