<!DOCTYPE svg PUBLIC "-//W3C//DTD SVG 1.1//EN" "http://www.w3.org/Graphics/SVG/1.1/DTD/svg11.dtd">
<!-- Uploaded to: SVG Repo, www.svgrepo.com, Transformed by: SVG Repo Mixer Tools -->
<svg fill="#000000" width="800px" height="800px" viewBox="-5 -5 60.00 60.00" xmlns="http://www.w3.org/2000/svg" xmlns:xlink="http://www.w3.org/1999/xlink">
<g id="SVGRepo_bgCarrier" stroke-width="0">
<path transform="translate(-5, -5), scale(3.75)" fill="#DAC0A3" d="M9.166.33a2.25 2.25 0 00-2.332 0l-5.25 3.182A2.25 2.25 0 00.5 5.436v5.128a2.25 2.25 0 001.084 1.924l5.25 3.182a2.25 2.25 0 002.332 0l5.25-3.182a2.25 2.25 0 001.084-1.924V5.436a2.25 2.25 0 00-1.084-1.924L9.166.33z" strokewidth="0"/>
</g>
<g id="SVGRepo_tracerCarrier" stroke-linecap="round" stroke-linejoin="round"/>
<g id="SVGRepo_iconCarrier">
<path d="M22 0C20.839844 0 20 0.839844 20 2L20 5L30 5L30 2C30 0.839844 29.160156 0 28 0 Z M 20 7L20 13.3125C18.097656 14.128906 15 16.25 15 21.3125L15 47.09375C15 48.636719 16.269531 49.90625 17.8125 49.90625L32.1875 49.90625C33.730469 49.90625 35 48.636719 35 47.09375L35 21.3125C35 16.210938 31.742188 14.078125 30 13.3125L30 7 Z M 20 26L30 26L30 30L20 30 Z M 20 32L30 32L30 42L20 42Z"/>
</g>
</svg>